<?plantuml 1.2026.2beta3?><svg xmlns="http://www.w3.org/2000/svg" xmlns:xlink="http://www.w3.org/1999/xlink" contentStyleType="text/css" data-diagram-type="CLASS" height="904px" preserveAspectRatio="none" style="width:384px;height:904px;background:#FFFFFF;" version="1.1" viewBox="0 0 384 904" width="384px" zoomAndPan="magnify"><defs/><g><!--class User--><g class="entity" data-qualified-name="User" data-source-line="1" id="ent0002"><rect fill="#F1F1F1" height="129.4844" rx="2.5" ry="2.5" style="stroke:#181818;stroke-width:0.5;" width="143.6602" x="158.53" y="7"/><ellipse cx="210.155" cy="23" fill="#ADD1B2" rx="11" ry="11" style="stroke:#181818;stroke-width:1;"/><path d="M213.1238,28.6406 Q212.5456,28.9375 211.905,29.0781 Q211.2644,29.2344 210.5613,29.2344 Q208.0613,29.2344 206.7331,27.5938 Q205.4206,25.9375 205.4206,22.8125 Q205.4206,19.6875 206.7331,18.0313 Q208.0613,16.375 210.5613,16.375 Q211.2644,16.375 211.905,16.5313 Q212.5613,16.6875 213.1238,16.9844 L213.1238,19.7031 Q212.4988,19.125 211.905,18.8594 Q211.3113,18.5781 210.6863,18.5781 Q209.3425,18.5781 208.655,19.6563 Q207.9675,20.7188 207.9675,22.8125 Q207.9675,24.9063 208.655,25.9844 Q209.3425,27.0469 210.6863,27.0469 Q211.3113,27.0469 211.905,26.7813 Q212.4988,26.5 213.1238,25.9219 L213.1238,28.6406 Z " fill="#000000"/><text fill="#000000" font-family="sans-serif" font-size="14" lengthAdjust="spacing" textLength="31.9102" x="230.655" y="27.8467">User</text><line style="stroke:#181818;stroke-width:0.5;" x1="159.53" x2="301.1902" y1="39" y2="39"/><g data-visibility-modifier="PUBLIC_FIELD"><ellipse cx="169.53" cy="52.6484" fill="none" rx="3" ry="3" style="stroke:#038048;stroke-width:1;"/></g><text fill="#000000" font-family="sans-serif" font-size="14" lengthAdjust="spacing" textLength="111.3301" x="178.53" y="55.9951">userId: ObjectId</text><g data-visibility-modifier="PUBLIC_FIELD"><ellipse cx="169.53" cy="68.9453" fill="none" rx="3" ry="3" style="stroke:#038048;stroke-width:1;"/></g><text fill="#000000" font-family="sans-serif" font-size="14" lengthAdjust="spacing" textLength="90.6514" x="178.53" y="72.292">name: String</text><g data-visibility-modifier="PUBLIC_FIELD"><ellipse cx="169.53" cy="85.2422" fill="none" rx="3" ry="3" style="stroke:#038048;stroke-width:1;"/></g><text fill="#000000" font-family="sans-serif" font-size="14" lengthAdjust="spacing" textLength="89.5576" x="178.53" y="88.5889">email: String</text><g data-visibility-modifier="PUBLIC_FIELD"><ellipse cx="169.53" cy="101.5391" fill="none" rx="3" ry="3" style="stroke:#038048;stroke-width:1;"/></g><text fill="#000000" font-family="sans-serif" font-size="14" lengthAdjust="spacing" textLength="117.6602" x="178.53" y="104.8857">password: String</text><g data-visibility-modifier="PUBLIC_FIELD"><ellipse cx="169.53" cy="117.8359" fill="none" rx="3" ry="3" style="stroke:#038048;stroke-width:1;"/></g><text fill="#000000" font-family="sans-serif" font-size="14" lengthAdjust="spacing" textLength="77.7725" x="178.53" y="121.1826">role: String</text><line style="stroke:#181818;stroke-width:0.5;" x1="159.53" x2="301.1902" y1="128.4844" y2="128.4844"/></g><!--class Project--><g class="entity" data-qualified-name="Project" data-source-line="9" id="ent0003"><rect fill="#F1F1F1" height="113.1875" rx="2.5" ry="2.5" style="stroke:#181818;stroke-width:0.5;" width="167.1484" x="9.78" y="213.49"/><ellipse cx="64.8777" cy="229.49" fill="#ADD1B2" rx="11" ry="11" style="stroke:#181818;stroke-width:1;"/><path d="M67.8464,235.1306 Q67.2683,235.4275 66.6277,235.5681 Q65.987,235.7244 65.2839,235.7244 Q62.7839,235.7244 61.4558,234.0838 Q60.1433,232.4275 60.1433,229.3025 Q60.1433,226.1775 61.4558,224.5213 Q62.7839,222.865 65.2839,222.865 Q65.987,222.865 66.6277,223.0213 Q67.2839,223.1775 67.8464,223.4744 L67.8464,226.1931 Q67.2214,225.615 66.6277,225.3494 Q66.0339,225.0681 65.4089,225.0681 Q64.0652,225.0681 63.3777,226.1463 Q62.6902,227.2088 62.6902,229.3025 Q62.6902,231.3963 63.3777,232.4744 Q64.0652,233.5369 65.4089,233.5369 Q66.0339,233.5369 66.6277,233.2713 Q67.2214,232.99 67.8464,232.4119 L67.8464,235.1306 Z " fill="#000000"/><text fill="#000000" font-family="sans-serif" font-size="14" lengthAdjust="spacing" textLength="48.4531" x="85.3777" y="234.3367">Project</text><line style="stroke:#181818;stroke-width:0.5;" x1="10.78" x2="175.9284" y1="245.49" y2="245.49"/><g data-visibility-modifier="PUBLIC_FIELD"><ellipse cx="20.78" cy="259.1384" fill="none" rx="3" ry="3" style="stroke:#038048;stroke-width:1;"/></g><text fill="#000000" font-family="sans-serif" font-size="14" lengthAdjust="spacing" textLength="129.6914" x="29.78" y="262.4851">projectId: ObjectId</text><g data-visibility-modifier="PUBLIC_FIELD"><ellipse cx="20.78" cy="275.4353" fill="none" rx="3" ry="3" style="stroke:#038048;stroke-width:1;"/></g><text fill="#000000" font-family="sans-serif" font-size="14" lengthAdjust="spacing" textLength="141.1484" x="29.78" y="278.782">projectName: String</text><g data-visibility-modifier="PUBLIC_FIELD"><ellipse cx="20.78" cy="291.7322" fill="none" rx="3" ry="3" style="stroke:#038048;stroke-width:1;"/></g><text fill="#000000" font-family="sans-serif" font-size="14" lengthAdjust="spacing" textLength="128.7891" x="29.78" y="295.0789">description: String</text><g data-visibility-modifier="PUBLIC_FIELD"><ellipse cx="20.78" cy="308.0291" fill="none" rx="3" ry="3" style="stroke:#038048;stroke-width:1;"/></g><text fill="#000000" font-family="sans-serif" font-size="14" lengthAdjust="spacing" textLength="139.3027" x="29.78" y="311.3757">createdBy: ObjectId</text><line style="stroke:#181818;stroke-width:0.5;" x1="10.78" x2="175.9284" y1="318.6775" y2="318.6775"/></g><!--class Module--><g class="entity" data-qualified-name="Module" data-source-line="16" id="ent0004"><rect fill="#F1F1F1" height="96.8906" rx="2.5" ry="2.5" style="stroke:#181818;stroke-width:0.5;" width="170.7168" x="7" y="403.67"/><ellipse cx="62.6548" cy="419.67" fill="#ADD1B2" rx="11" ry="11" style="stroke:#181818;stroke-width:1;"/><path d="M65.6235,425.3106 Q65.0454,425.6075 64.4048,425.7481 Q63.7642,425.9044 63.061,425.9044 Q60.561,425.9044 59.2329,424.2638 Q57.9204,422.6075 57.9204,419.4825 Q57.9204,416.3575 59.2329,414.7013 Q60.561,413.045 63.061,413.045 Q63.7642,413.045 64.4048,413.2013 Q65.061,413.3575 65.6235,413.6544 L65.6235,416.3731 Q64.9985,415.795 64.4048,415.5294 Q63.811,415.2481 63.186,415.2481 Q61.8423,415.2481 61.1548,416.3263 Q60.4673,417.3888 60.4673,419.4825 Q60.4673,421.5763 61.1548,422.6544 Q61.8423,423.7169 63.186,423.7169 Q63.811,423.7169 64.4048,423.4513 Q64.9985,423.17 65.6235,422.5919 L65.6235,425.3106 Z " fill="#000000"/><text fill="#000000" font-family="sans-serif" font-size="14" lengthAdjust="spacing" textLength="50.9072" x="83.1548" y="424.5167">Module</text><line style="stroke:#181818;stroke-width:0.5;" x1="8" x2="176.7168" y1="435.67" y2="435.67"/><g data-visibility-modifier="PUBLIC_FIELD"><ellipse cx="18" cy="449.3184" fill="none" rx="3" ry="3" style="stroke:#038048;stroke-width:1;"/></g><text fill="#000000" font-family="sans-serif" font-size="14" lengthAdjust="spacing" textLength="133.2598" x="27" y="452.6651">moduleId: ObjectId</text><g data-visibility-modifier="PUBLIC_FIELD"><ellipse cx="18" cy="465.6153" fill="none" rx="3" ry="3" style="stroke:#038048;stroke-width:1;"/></g><text fill="#000000" font-family="sans-serif" font-size="14" lengthAdjust="spacing" textLength="144.7168" x="27" y="468.962">moduleName: String</text><g data-visibility-modifier="PUBLIC_FIELD"><ellipse cx="18" cy="481.9122" fill="none" rx="3" ry="3" style="stroke:#038048;stroke-width:1;"/></g><text fill="#000000" font-family="sans-serif" font-size="14" lengthAdjust="spacing" textLength="129.6914" x="27" y="485.2589">projectId: ObjectId</text><line style="stroke:#181818;stroke-width:0.5;" x1="8" x2="176.7168" y1="492.5606" y2="492.5606"/></g><!--class Task--><g class="entity" data-qualified-name="Task" data-source-line="22" id="ent0005"><rect fill="#F1F1F1" height="145.7813" rx="2.5" ry="2.5" style="stroke:#181818;stroke-width:0.5;" width="173.2119" x="66.75" y="561.56"/><ellipse cx="132.8398" cy="577.56" fill="#ADD1B2" rx="11" ry="11" style="stroke:#181818;stroke-width:1;"/><path d="M135.8086,583.2006 Q135.2305,583.4975 134.5898,583.6381 Q133.9492,583.7944 133.2461,583.7944 Q130.7461,583.7944 129.418,582.1538 Q128.1055,580.4975 128.1055,577.3725 Q128.1055,574.2475 129.418,572.5913 Q130.7461,570.935 133.2461,570.935 Q133.9492,570.935 134.5898,571.0913 Q135.2461,571.2475 135.8086,571.5444 L135.8086,574.2631 Q135.1836,573.685 134.5898,573.4194 Q133.9961,573.1381 133.3711,573.1381 Q132.0273,573.1381 131.3398,574.2163 Q130.6523,575.2788 130.6523,577.3725 Q130.6523,579.4663 131.3398,580.5444 Q132.0273,581.6069 133.3711,581.6069 Q133.9961,581.6069 134.5898,581.3413 Q135.1836,581.06 135.8086,580.4819 L135.8086,583.2006 Z " fill="#000000"/><text fill="#000000" font-family="sans-serif" font-size="14" lengthAdjust="spacing" textLength="32.5322" x="153.3398" y="582.4067">Task</text><line style="stroke:#181818;stroke-width:0.5;" x1="67.75" x2="238.9619" y1="593.56" y2="593.56"/><g data-visibility-modifier="PUBLIC_FIELD"><ellipse cx="77.75" cy="607.2084" fill="none" rx="3" ry="3" style="stroke:#038048;stroke-width:1;"/></g><text fill="#000000" font-family="sans-serif" font-size="14" lengthAdjust="spacing" textLength="110.2637" x="86.75" y="610.5551">taskId: ObjectId</text><g data-visibility-modifier="PUBLIC_FIELD"><ellipse cx="77.75" cy="623.5053" fill="none" rx="3" ry="3" style="stroke:#038048;stroke-width:1;"/></g><text fill="#000000" font-family="sans-serif" font-size="14" lengthAdjust="spacing" textLength="78.3193" x="86.75" y="626.852">title: String</text><g data-visibility-modifier="PUBLIC_FIELD"><ellipse cx="77.75" cy="639.8022" fill="none" rx="3" ry="3" style="stroke:#038048;stroke-width:1;"/></g><text fill="#000000" font-family="sans-serif" font-size="14" lengthAdjust="spacing" textLength="128.7891" x="86.75" y="643.1489">description: String</text><g data-visibility-modifier="PUBLIC_FIELD"><ellipse cx="77.75" cy="656.0991" fill="none" rx="3" ry="3" style="stroke:#038048;stroke-width:1;"/></g><text fill="#000000" font-family="sans-serif" font-size="14" lengthAdjust="spacing" textLength="93.9668" x="86.75" y="659.4457">status: String</text><g data-visibility-modifier="PUBLIC_FIELD"><ellipse cx="77.75" cy="672.3959" fill="none" rx="3" ry="3" style="stroke:#038048;stroke-width:1;"/></g><text fill="#000000" font-family="sans-serif" font-size="14" lengthAdjust="spacing" textLength="147.2119" x="86.75" y="675.7426">assignedTo: ObjectId</text><g data-visibility-modifier="PUBLIC_FIELD"><ellipse cx="77.75" cy="688.6928" fill="none" rx="3" ry="3" style="stroke:#038048;stroke-width:1;"/></g><text fill="#000000" font-family="sans-serif" font-size="14" lengthAdjust="spacing" textLength="137.7852" x="86.75" y="692.0395">timeSpent: Number</text><line style="stroke:#181818;stroke-width:0.5;" x1="67.75" x2="238.9619" y1="699.3413" y2="699.3413"/></g><!--class Bug--><g class="entity" data-qualified-name="Bug" data-source-line="31" id="ent0006"><rect fill="#F1F1F1" height="129.4844" rx="2.5" ry="2.5" style="stroke:#181818;stroke-width:0.5;" width="154.7891" x="56.96" y="768.35"/><ellipse cx="116.4224" cy="784.35" fill="#ADD1B2" rx="11" ry="11" style="stroke:#181818;stroke-width:1;"/><path d="M119.3912,789.9906 Q118.813,790.2875 118.1724,790.4281 Q117.5318,790.5844 116.8287,790.5844 Q114.3287,790.5844 113.0005,788.9438 Q111.688,787.2875 111.688,784.1625 Q111.688,781.0375 113.0005,779.3813 Q114.3287,777.725 116.8287,777.725 Q117.5318,777.725 118.1724,777.8813 Q118.8287,778.0375 119.3912,778.3344 L119.3912,781.0531 Q118.7662,780.475 118.1724,780.2094 Q117.5787,779.9281 116.9537,779.9281 Q115.6099,779.9281 114.9224,781.0063 Q114.2349,782.0688 114.2349,784.1625 Q114.2349,786.2563 114.9224,787.3344 Q115.6099,788.3969 116.9537,788.3969 Q117.5787,788.3969 118.1724,788.1313 Q118.7662,787.85 119.3912,787.2719 L119.3912,789.9906 Z " fill="#000000"/><text fill="#000000" font-family="sans-serif" font-size="14" lengthAdjust="spacing" textLength="27.3643" x="136.9224" y="789.1967">Bug</text><line style="stroke:#181818;stroke-width:0.5;" x1="57.96" x2="210.7491" y1="800.35" y2="800.35"/><g data-visibility-modifier="PUBLIC_FIELD"><ellipse cx="67.96" cy="813.9984" fill="none" rx="3" ry="3" style="stroke:#038048;stroke-width:1;"/></g><text fill="#000000" font-family="sans-serif" font-size="14" lengthAdjust="spacing" textLength="107.4404" x="76.96" y="817.3451">bugId: ObjectId</text><g data-visibility-modifier="PUBLIC_FIELD"><ellipse cx="67.96" cy="830.2953" fill="none" rx="3" ry="3" style="stroke:#038048;stroke-width:1;"/></g><text fill="#000000" font-family="sans-serif" font-size="14" lengthAdjust="spacing" textLength="78.3193" x="76.96" y="833.642">title: String</text><g data-visibility-modifier="PUBLIC_FIELD"><ellipse cx="67.96" cy="846.5922" fill="none" rx="3" ry="3" style="stroke:#038048;stroke-width:1;"/></g><text fill="#000000" font-family="sans-serif" font-size="14" lengthAdjust="spacing" textLength="128.7891" x="76.96" y="849.9389">description: String</text><g data-visibility-modifier="PUBLIC_FIELD"><ellipse cx="67.96" cy="862.8891" fill="none" rx="3" ry="3" style="stroke:#038048;stroke-width:1;"/></g><text fill="#000000" font-family="sans-serif" font-size="14" lengthAdjust="spacing" textLength="107.1738" x="76.96" y="866.2357">severity: String</text><g data-visibility-modifier="PUBLIC_FIELD"><ellipse cx="67.96" cy="879.1859" fill="none" rx="3" ry="3" style="stroke:#038048;stroke-width:1;"/></g><text fill="#000000" font-family="sans-serif" font-size="14" lengthAdjust="spacing" textLength="93.9668" x="76.96" y="882.5326">status: String</text><line style="stroke:#181818;stroke-width:0.5;" x1="57.96" x2="210.7491" y1="889.8344" y2="889.8344"/></g><!--class TimeLog--><g class="entity" data-qualified-name="TimeLog" data-source-line="39" id="ent0007"><rect fill="#F1F1F1" height="96.8906" rx="2.5" ry="2.5" style="stroke:#181818;stroke-width:0.5;" width="130.7676" x="246.97" y="784.64"/><ellipse cx="279.4405" cy="800.64" fill="#ADD1B2" rx="11" ry="11" style="stroke:#181818;stroke-width:1;"/><path d="M282.4092,806.2806 Q281.8311,806.5775 281.1905,806.7181 Q280.5498,806.8744 279.8467,806.8744 Q277.3467,806.8744 276.0186,805.2338 Q274.7061,803.5775 274.7061,800.4525 Q274.7061,797.3275 276.0186,795.6713 Q277.3467,794.015 279.8467,794.015 Q280.5498,794.015 281.1905,794.1713 Q281.8467,794.3275 282.4092,794.6244 L282.4092,797.3431 Q281.7842,796.765 281.1905,796.4994 Q280.5967,796.2181 279.9717,796.2181 Q278.628,796.2181 277.9405,797.2963 Q277.253,798.3588 277.253,800.4525 Q277.253,802.5463 277.9405,803.6244 Q278.628,804.6869 279.9717,804.6869 Q280.5967,804.6869 281.1905,804.4213 Q281.7842,804.14 282.4092,803.5619 L282.4092,806.2806 Z " fill="#000000"/><text fill="#000000" font-family="sans-serif" font-size="14" lengthAdjust="spacing" textLength="59.9443" x="297.3228" y="805.4867">TimeLog</text><line style="stroke:#181818;stroke-width:0.5;" x1="247.97" x2="376.7376" y1="816.64" y2="816.64"/><g data-visibility-modifier="PUBLIC_FIELD"><ellipse cx="257.97" cy="830.2884" fill="none" rx="3" ry="3" style="stroke:#038048;stroke-width:1;"/></g><text fill="#000000" font-family="sans-serif" font-size="14" lengthAdjust="spacing" textLength="102.1357" x="266.97" y="833.6351">logId: ObjectId</text><g data-visibility-modifier="PUBLIC_FIELD"><ellipse cx="257.97" cy="846.5853" fill="none" rx="3" ry="3" style="stroke:#038048;stroke-width:1;"/></g><text fill="#000000" font-family="sans-serif" font-size="14" lengthAdjust="spacing" textLength="104.7676" x="266.97" y="849.932">hours: Number</text><g data-visibility-modifier="PUBLIC_FIELD"><ellipse cx="257.97" cy="862.8822" fill="none" rx="3" ry="3" style="stroke:#038048;stroke-width:1;"/></g><text fill="#000000" font-family="sans-serif" font-size="14" lengthAdjust="spacing" textLength="74.1973" x="266.97" y="866.2289">date: Date</text><line style="stroke:#181818;stroke-width:0.5;" x1="247.97" x2="376.7376" y1="873.5306" y2="873.5306"/></g><!--link User to Project--><g class="link" data-entity-1="ent0002" data-entity-2="ent0003" data-link-type="association" data-source-line="45" id="lnk8"><path codeLine="45" d="M176.37,136.85 C168.74,146.61 161.19,156.69 154.36,166.49 C144.11,181.19 133.82,197.67 124.69,213.05" fill="none" id="User-Project" style="stroke:#181818;stroke-width:1;"/><text fill="#000000" font-family="sans-serif" font-size="13" lengthAdjust="spacing" textLength="48.3247" x="155.36" y="179.5569">creates</text><text fill="#000000" font-family="sans-serif" font-size="13" lengthAdjust="spacing" textLength="8.271" x="162.4037" y="156.4114">1</text><text fill="#000000" font-family="sans-serif" font-size="13" lengthAdjust="spacing" textLength="36.5625" x="90.3496" y="202.2599">many</text></g><!--link Project to Module--><g class="link" data-entity-1="ent0003" data-entity-2="ent0004" data-link-type="association" data-source-line="46" id="lnk9"><path codeLine="46" d="M93.05,327.06 C92.91,351.52 92.75,379.92 92.62,403.37" fill="none" id="Project-Module" style="stroke:#181818;stroke-width:1;"/><text fill="#000000" font-family="sans-serif" font-size="13" lengthAdjust="spacing" textLength="8.271" x="84.568" y="346.5896">1</text><text fill="#000000" font-family="sans-serif" font-size="13" lengthAdjust="spacing" textLength="36.5625" x="54.1651" y="392.5367">many</text></g><!--link Module to Task--><g class="link" data-entity-1="ent0004" data-entity-2="ent0005" data-link-type="association" data-source-line="47" id="lnk10"><path codeLine="47" d="M108.55,500.97 C114.79,519.44 122.08,540.97 128.93,561.24" fill="none" id="Module-Task" style="stroke:#181818;stroke-width:1;"/><text fill="#000000" font-family="sans-serif" font-size="13" lengthAdjust="spacing" textLength="8.271" x="102.2065" y="520.6185">1</text><text fill="#000000" font-family="sans-serif" font-size="13" lengthAdjust="spacing" textLength="36.5625" x="88.7814" y="550.3685">many</text></g><!--link Task to Bug--><g class="link" data-entity-1="ent0005" data-entity-2="ent0006" data-link-type="association" data-source-line="48" id="lnk11"><path codeLine="48" d="M146.36,707.84 C144.46,727.55 142.41,748.76 140.55,767.97" fill="none" id="Task-Bug" style="stroke:#181818;stroke-width:1;"/><text fill="#000000" font-family="sans-serif" font-size="13" lengthAdjust="spacing" textLength="8.271" x="137.3588" y="727.37">1</text><text fill="#000000" font-family="sans-serif" font-size="13" lengthAdjust="spacing" textLength="36.5625" x="103.2896" y="757.1011">many</text></g><!--link User to Task--><g class="link" data-entity-1="ent0002" data-entity-2="ent0005" data-link-type="association" data-source-line="49" id="lnk12"><path codeLine="49" d="M229.58,136.78 C227.55,220.97 220.38,373.14 195.36,500.56 C191.44,520.51 185.57,541.67 179.46,561.11" fill="none" id="User-Task" style="stroke:#181818;stroke-width:1;"/><text fill="#000000" font-family="sans-serif" font-size="13" lengthAdjust="spacing" textLength="57.8652" x="216.36" y="369.7369">assigned</text><text fill="#000000" font-family="sans-serif" font-size="13" lengthAdjust="spacing" textLength="8.271" x="221.101" y="156.3342">1</text><text fill="#000000" font-family="sans-serif" font-size="13" lengthAdjust="spacing" textLength="36.5625" x="144.2592" y="550.4781">many</text></g><!--link Task to TimeLog--><g class="link" data-entity-1="ent0005" data-entity-2="ent0007" data-link-type="association" data-source-line="50" id="lnk13"><path codeLine="50" d="M211.89,707.84 C232.52,733.35 255.18,761.38 273.75,784.34" fill="none" id="Task-TimeLog" style="stroke:#181818;stroke-width:1;"/><text fill="#000000" font-family="sans-serif" font-size="13" lengthAdjust="spacing" textLength="8.271" x="208.9298" y="727.37">1</text><text fill="#000000" font-family="sans-serif" font-size="13" lengthAdjust="spacing" textLength="36.5625" x="229.8296" y="773.5067">many</text></g><!--link User to TimeLog--><g class="link" data-entity-1="ent0002" data-entity-2="ent0007" data-link-type="association" data-source-line="51" id="lnk14"><path codeLine="51" d="M272.08,136.76 C292.34,173.86 312.36,222.35 312.36,269.08 C312.36,269.08 312.36,269.08 312.36,635.45 C312.36,686.32 312.36,744.59 312.36,784.41" fill="none" id="User-TimeLog" style="stroke:#181818;stroke-width:1;"/><text fill="#000000" font-family="sans-serif" font-size="13" lengthAdjust="spacing" textLength="8.271" x="268.2204" y="156.7658">1</text><text fill="#000000" font-family="sans-serif" font-size="13" lengthAdjust="spacing" textLength="36.5625" x="273.8692" y="773.5866">many</text></g><?plantuml-src dPBBJiGW58RtFCL9jsOMRbbEPZE9ZYOpFW0j9nNbqd1nqXZVNIYTNh0nnWqv_C3__N1e97CENXnQ-2G0To5MHqxXgNx3nXzvqZHJIE7ihT1jcgDYGYw5BdfSZULBpHev7_eYf1b0pzOatypgygJ4ZVAfe79qZHMT5qOlvSOYyyZt_S9amZqQ7YHccXhg4fRLahMLR3AzCFUUBNsiIaCllFnBRkUP3swfH6_HQkGNKpegF7UeFOLJK3NQESe-j3b97Tf_1y4FjCBtluIRhnwZF9YHASqFvgi9raqn4pFsXi8XZiba-6RLVGMx7LIAwRwQFWI5t4X7RifwN-ua6HkwNaiD8KDNrdfydItai9F2xRctJextt3oTbxu1?></g></svg>